OpenSim_Sub02_EMGBaseline_GRF.mot
version=1
nRows=40
nColumns=19
inDegrees=no
endheader
time	lFx	lFy	lFz	lCOPx	lCOPy	lCOPz	rFx	rFy	rFz	rCOPx	rCOPy	rCOPz	lMx	lMy	lMz	rMx	rMy	rMz
16.81000000	2.15652832	-1.77594282	-5.57108999	-0.03122221	0	0.02044312	43.39977751	549.58993194	-49.85385130	0.62030599	0	-0.40702104	0	0.12795017	0	0	1.85901384	-0.00000000
16.82000000	2.35537183	-0.45098994	-5.34712812	-0.00960369	0	0.00651346	47.31980501	546.71044887	-49.35500644	0.61425096	0	-0.40755248	0	-0.05626664	0	0	1.94036563	0.00000000
16.83000000	4.60205150	5.83797255	-4.91090975	0.08901452	0	-0.05759411	51.07570050	542.83142905	-48.44349319	0.60860500	0	-0.40807879	0	-0.65728378	0	0	2.04168324	0
16.84000000	10.25641153	20.92688215	-4.44816813	0.30869927	0	-0.20087075	54.73056091	537.23881251	-47.18944440	0.60301751	0	-0.40859387	0	-1.79718451	0	0	2.12539455	-0.00000000
16.85000000	17.37642297	46.89409624	-4.42484838	0.60818559	0	-0.39708802	58.21602966	529.18324967	-45.68787281	0.59718104	0	-0.40912868	0	-3.01509765	0	0	2.18261600	0
16.86000000	19.02211224	80.75520776	-5.10481337	0.82704606	0	-0.54425231	61.40450801	518.01676568	-44.01772561	0.59107619	0	-0.40971306	0	-3.22745733	0	0	2.25749628	0
16.87000000	11.86991562	119.12776288	-5.65601929	0.92266569	0	-0.61082388	64.06117942	503.03811048	-42.07192700	0.58490222	0	-0.41035449	0	-2.43356838	0	0	2.34651762	-0.00000000
16.88000000	-0.21577460	163.96603435	-4.81896468	0.94504790	0	-0.62549320	65.92127701	483.67972991	-39.70801010	0.57900210	0	-0.41107566	0	-1.21318721	0	0	2.44721619	0
16.89000000	-14.16033573	216.96558611	-1.36519481	0.93869544	0	-0.61999999	66.94397707	459.62540636	-36.89422975	0.57354672	0	-0.41194123	0	-0.21257176	0	0	2.52538676	0
16.90000000	-29.01511698	274.22303186	4.45348377	0.92641887	0	-0.61216441	67.03955058	430.78747870	-33.61238145	0.56850877	0	-0.41291565	0	0.26696577	0	0	2.55497382	-0.00000000
16.91000000	-42.66889079	327.22719083	11.12804737	0.91663064	0	-0.60777795	65.97151953	397.21629970	-29.81355720	0.56360359	0	-0.41382267	0	0.32003149	0	0	2.53381587	0.00000000
16.92000000	-52.91889416	367.52763809	17.05923651	0.91030405	0	-0.60675198	63.41147305	358.93320645	-25.55164471	0.55837566	0	-0.41458287	0	0.14938963	0	0	2.50070662	-0.00000000
16.93000000	-58.38843828	391.02250652	21.52400734	0.90602560	0	-0.60761541	59.12126719	316.20482049	-20.97992638	0.55288003	0	-0.41530876	0	-0.09927505	0	0	2.43052764	0.00000000
16.94000000	-59.39600348	399.63598754	25.93004469	0.90199708	0	-0.60924519	52.85712365	270.09013428	-16.49423324	0.54805152	0	-0.41621315	0	-0.80545115	0	0	2.22715719	0
16.95000000	-57.45326412	399.66085497	31.60041016	0.89629267	0	-0.61109028	44.61461494	222.56039954	-12.63933420	0.54498202	0	-0.41775176	0	-2.24260736	0	0	1.88168263	0.00000000
16.96000000	-54.16317313	397.02374551	37.71185544	0.88890311	0	-0.61288089	34.82162064	176.12980571	-9.90115172	0.54401625	0	-0.42075531	0	-4.02368346	0	0	1.49426274	0
16.97000000	-50.75654469	395.36720689	42.70560200	0.88112167	0	-0.61445662	24.22780207	133.62133414	-8.42556223	0.54427068	0	-0.42560061	0	-5.58346805	0	0	1.15782728	0
16.98000000	-47.86028130	397.45313363	45.92107523	0.87383657	0	-0.61574888	13.93337128	97.39846153	-7.93717725	0.54427549	0	-0.43113146	0	-6.55790151	0	0	0.92196254	0.00000000
16.99000000	-45.47457967	404.90660047	47.57512004	0.86695867	0	-0.61666992	4.99253716	69.27610763	-7.72055205	0.53929937	0	-0.43154988	0	-6.85765029	0	0	0.67682104	0
17	-43.22797224	417.86359720	48.28895998	0.86002467	0	-0.61716951	-1.58276659	49.57926038	-7.29963187	0.51380399	0	-0.41262292	0	-6.65160814	0	0	0.37892499	0.00000000
17.01000000	-40.78089018	435.38517917	48.56021313	0.85276119	0	-0.61733591	-5.15431792	36.49259798	-6.62100990	0.44426929	0	-0.35424501	0	-6.13184284	0	0	0.12144371	0.00000000
17.02000000	-38.07087684	456.01864384	48.65737245	0.84529478	0	-0.61733583	-5.96261620	27.40746421	-5.77037816	0.31653219	0	-0.24896093	0	-5.45516798	0	0	-0.03236169	0.00000000
17.03000000	-35.22215696	478.03512726	48.65427514	0.83769869	0	-0.61730135	-5.01949572	20.32886112	-4.91902830	0.16510370	0	-0.12747029	0	-4.72748297	0	0	-0.07329472	-0.00000000
17.04000000	-32.57580018	499.63372215	48.54241359	0.83008240	0	-0.61730988	-3.56046147	14.36852278	-4.10698595	0.05069321	0	-0.03787680	0	-4.01269012	0	0	-0.05068836	-0.00000000
17.05000000	-30.52484395	519.23685329	48.35824524	0.82244346	0	-0.61734861	-2.40576855	9.38526378	-3.24284173	-0.00264779	0	0.00306190	0	-3.35190710	0	0	-0.02156028	0.00000000
17.06000000	-29.36965498	535.84987586	48.31709986	0.81506136	0	-0.61737888	-1.67902119	5.33501700	-2.32552918	-0.01550482	0	0.01245892	0	-2.84897556	0	0	-0.00402480	-0.00000000
17.07000000	-29.07355618	549.10390278	48.44754893	0.80818594	0	-0.61741548	-1.04546478	2.27625734	-1.34416058	-0.01180927	0	0.00924296	0	-2.51512659	0	0	0.00243915	-0.00000000
17.08000000	-29.21062410	558.97999241	48.62700441	0.80153142	0	-0.61743848	-0.41612541	0.40901355	-0.37670170	-0.00543743	0	0.00417050	0	-2.29370581	0	0	0.00302906	0.00000000
17.09000000	-29.21690328	565.42959629	48.70545067	0.79475619	0	-0.61747313	-0.04334598	-0.37517880	0.08739177	-0.00127195	0	0.00092672	0	-2.14653977	0	0	0.00180025	-0.00000000
17.10000000	-28.63596318	568.28745915	48.51762698	0.78777822	0	-0.61756795	0.06516901	-0.51853349	0.06046800	0.00040790	0	-0.00035227	0	-2.02003336	0	0	0.00065341	0.00000000
17.11000000	-27.33123732	567.58963952	48.08142548	0.78075127	0	-0.61773497	0.06506736	-0.41420898	0.03476058	0.00066449	0	-0.00052857	0	-1.96482615	0	0	0.00005233	-0.00000000
17.12000000	-25.34945854	563.55368927	47.48536874	0.77360677	0	-0.61793147	0.06696277	-0.28349391	-0.02062335	0.00042846	0	-0.00033349	0	-2.02641177	0	0	-0.00013010	0.00000000
17.13000000	-22.78038694	556.53739888	46.62446500	0.76627993	0	-0.61814024	0.08169432	-0.20650728	-0.08317020	0.00017040	0	-0.00012963	0	-2.11500966	0	0	-0.00011875	-0.00000000
17.14000000	-19.76011465	547.10553345	45.45313825	0.75886597	0	-0.61838570	0.06877407	-0.21536850	-0.05139063	0.00002446	0	-0.00001662	0	-2.20482168	0	0	-0.00006149	0.00000000
17.15000000	-16.55070523	535.95084732	44.07464214	0.75164143	0	-0.61868550	0.01858412	-0.24329382	-0.05098549	-0.00002520	0	0.00002078	0	-2.36741764	0	0	-0.00001828	0.00000000
17.16000000	-13.43784274	524.01932104	42.47362615	0.74460322	0	-0.61901292	-0.01192482	-0.26450190	-0.07631134	-0.00002678	0	0.00002114	0	-2.52950497	0	0	0.00000147	0.00000000
17.17000000	-10.53018426	512.24729817	40.69692164	0.73725626	0	-0.61926510	-0.01701437	-0.25996967	-0.06445157	-0.00001496	0	0.00001158	0	-2.64652580	0	0	0.00000600	-0.00000000
17.18000000	-7.82613062	501.49132620	38.87224983	0.72957218	0	-0.61941686	-0.01896685	-0.25102639	-0.02234288	-0.00000500	0	0.00000376	0	-2.74859105	0	0	0.00000446	0.00000000
17.19000000	-5.33518286	492.38255875	37.01185273	0.72192798	0	-0.61947930	-0.00566356	-0.25313053	-0.02144180	-0.00000009	0	-0.00000002	0	-2.73662227	0	0	0.00000201	-0.00000000
17.20000000	-3.20513545	485.43267003	35.22528610	0.71471105	0	-0.61946161	0.01652147	-0.23164092	-0.02855503	0.00000125	0	-0.00000101	0	-2.58082742	0	0	0.00000045	0.00000000
